<?xml version="1.0" encoding="UTF-8"?>
<svg width="375px" height="52px" viewBox="0 0 375 52" version="1.1" xmlns="http://www.w3.org/2000/svg" xmlns:xlink="http://www.w3.org/1999/xlink">
    <!-- Generator: Sketch 51.3 (57544) - http://www.bohemiancoding.com/sketch -->
    <title>csis-main-logo-navy</title>
    <desc>Created with Sketch.</desc>
    <defs>
        <polygon id="path-1" points="0.532144 2.27209458 5.192512 3.63200728 6.865416 1.83674912 1.574944 0.292913801"></polygon>
        <polygon id="path-3" points="0.12956 3.95093034 2.286576 4.78694224 5.212104 1.01498038 2.923632 0.347409392"></polygon>
        <path d="M0.264176,0.840346781 L0.293248,3.47347465 C0.71732,2.92789947 1.7696,2.51484766 2.459744,2.62445811 L3.781256,2.83253219 L5.042728,0.81495679 L2.81556,0.463212522 C2.620272,0.432249118 2.419296,0.417386684 2.215792,0.417386684 C1.564832,0.417386684 0.885432,0.569726631 0.264176,0.840346781" id="path-5"></path>
        <polygon id="path-7" points="0.528984 4.42281261 2.73972 5.0767597 5.365048 0.876883598 3.065832 0.363510362"></polygon>
        <path d="M0.520768,2.75202734 L2.171552,4.97024559 L2.778904,2.99787676 C2.304904,2.14390608 1.778448,1.32089881 1.20396,0.533809083 L0.520768,2.75202734 Z" id="path-9"></path>
        <polygon id="path-11" points="6.32e-05 0.328212081 52.1211032 0.328212081 52.1211032 51.3992504 6.32e-05 51.3992504"></polygon>
        <polygon id="path-13" points="0 51.3992504 158 51.3992504 158 0.328212081 0 0.328212081"></polygon>
    </defs>
    <g id="Visual-Design-09-18-18" stroke="none" stroke-width="1" fill="none" fill-rule="evenodd">
        <g id="csis-main-logo-navy">
            <g id="Group-18">
                <g id="Group">
                    <g id="Group-7" transform="translate(1.264000, 7.722459)">
                        <path d="M10.131592,38.4142516 L8.353776,37.0896372 L26.3228,13.9153872 C27.254368,12.7146264 29.102336,11.9900827 30.62356,12.2291202 L40.349408,13.7642858 C40.901776,13.8522218 41.53188,13.4670371 41.69304,12.94004 L44.28424,4.53161801 L46.422928,5.16389072 L43.83236,13.5729319 C43.345088,15.1545426 41.662072,16.1887203 39.993592,15.9255314 L30.267744,14.3903658 C29.578864,14.2819939 28.52532,14.6938072 28.10188,15.2400016 L10.131592,38.4142516 Z" id="Fill-1" fill="#FF715B"></path>
                        <path d="M23.102444,28.8409864 C22.768748,28.8409864 22.436948,28.7970184 22.119052,28.7041282 L0.182964,22.3033733 L0.820652,20.2059123 L22.75674,26.6060479 C23.3445,26.7775852 24.171788,26.4673319 24.492212,25.9545779 L40.660036,0.0865117504 L42.564884,1.22968062 L26.39706,27.0977468 C25.72398,28.1740347 24.398044,28.8409864 23.102444,28.8409864" id="Fill-3" fill="#3DC1BD"></path>
                        <path d="M4.6614424,32.0035265 L3.0011784,30.5395768 L14.5421304,17.9740082 C15.5666024,16.8587064 17.4657624,16.268544 18.9585464,16.6017102 L33.0161224,19.7376837 C33.5918744,19.8658722 34.3401624,19.5048389 34.5879064,18.9809381 L42.6964664,1.81358849 L44.7239224,2.73258232 L36.6153624,19.9005512 C35.9239544,21.3638817 34.1240184,22.2296185 32.5206344,21.8716815 L18.4630584,18.7363272 C17.7722824,18.5821295 16.6751304,18.9233462 16.2023944,19.437958 L4.6614424,32.0035265 Z" id="Fill-5" fill="#161569"></path>
                    </g>
                    <g id="Group-10" transform="translate(4.424000, 28.777573)">
                        <mask id="mask-2" fill="white">
                            <use xlink:href="#path-1"></use>
                        </mask>
                        <g id="Clip-9"></g>
                        <polygon id="Fill-8" mask="url(#mask-2)" points="0.532144 2.27209458 5.192512 3.63200728 6.865416 1.83674912 1.574944 0.292913801"></polygon>
                    </g>
                    <g id="Group-13" transform="translate(14.536000, 34.350986)">
                        <mask id="mask-4" fill="white">
                            <use xlink:href="#path-3"></use>
                        </mask>
                        <g id="Clip-12"></g>
                        <polygon id="Fill-11" mask="url(#mask-4)" points="0.12956 3.95093034 2.286576 4.78694224 5.212104 1.01498038 2.923632 0.347409392"></polygon>
                    </g>
                    <g id="Group-16" transform="translate(29.072000, 19.488552)">
                        <mask id="mask-6" fill="white">
                            <use xlink:href="#path-5"></use>
                        </mask>
                        <g id="Clip-15"></g>
                        <path d="M0.264176,0.840346781 L0.293248,3.47347465 C0.71732,2.92789947 1.7696,2.51484766 2.459744,2.62445811 L3.781256,2.83253219 L5.042728,0.81495679 L2.81556,0.463212522 C2.620272,0.432249118 2.419296,0.417386684 2.215792,0.417386684 C1.564832,0.417386684 0.885432,0.569726631 0.264176,0.840346781" id="Fill-14" mask="url(#mask-6)"></path>
                    </g>
                    <g id="Group-19" transform="translate(25.912000, 28.158305)">
                        <mask id="mask-8" fill="white">
                            <use xlink:href="#path-7"></use>
                        </mask>
                        <g id="Clip-18"></g>
                        <polygon id="Fill-17" mask="url(#mask-8)" points="0.528984 4.42281261 2.73972 5.0767597 5.365048 0.876883598 3.065832 0.363510362"></polygon>
                    </g>
                    <g id="Group-25" transform="translate(44.240000, 12.057335)">
                        <mask id="mask-10" fill="white">
                            <use xlink:href="#path-9"></use>
                        </mask>
                        <g id="Clip-24"></g>
                        <path d="M0.520768,2.75202734 L2.171552,4.97024559 L2.778904,2.99787676 C2.304904,2.14390608 1.778448,1.32089881 1.20396,0.533809083 L0.520768,2.75202734 Z" id="Fill-23" mask="url(#mask-10)"></path>
                    </g>
                    <g id="Group-40" transform="translate(0.000000, 0.291242)">
                        <polygon id="Fill-26" fill="#FF715B" points="22.9678912 27.3037153 25.0073552 24.6743031 27.4550912 25.1350385 25.2885952 27.9291761"></polygon>
                        <polygon id="Fill-28" fill="#FF715B" points="38.1136448 20.6432394 41.0992128 21.1145024 40.1853408 23.1871927 37.2452768 22.7233609"></polygon>
                        <g id="Group-32">
                            <mask id="mask-12" fill="white">
                                <use xlink:href="#path-11"></use>
                            </mask>
                            <g id="Clip-31"></g>
                            <path d="M26.0605832,2.51695317 C12.9225672,2.51695317 2.2341832,12.9900149 2.2341832,25.863979 C2.2341832,38.7373238 12.9225672,49.2103855 26.0605832,49.2103855 C39.1985992,49.2103855 49.8869832,38.7373238 49.8869832,25.863979 C49.8869832,12.9900149 39.1985992,2.51695317 26.0605832,2.51695317 M26.0605832,51.3994981 C11.6907992,51.3994981 6.32e-05,39.9442772 6.32e-05,25.863979 C6.32e-05,11.7830614 11.6907992,0.32784052 26.0605832,0.32784052 C40.4303672,0.32784052 52.1211032,11.7830614 52.1211032,25.863979 C52.1211032,39.9442772 40.4303672,51.3994981 26.0605832,51.3994981" id="Fill-30" fill="#161569" mask="url(#mask-12)"></path>
                        </g>
                        <path d="M77.6315304,12.8143905 C81.8160024,12.8143905 84.5816344,14.2424227 87.2720584,16.4024297 L84.0583384,20.9794401 C82.2274344,19.3315677 80.1348824,18.4893631 77.6315304,18.4893631 C72.8485544,18.4893631 69.8591944,21.8210254 69.8591944,26.0320483 C69.8591944,30.242452 72.8485544,33.5741142 77.6315304,33.5741142 C80.1348824,33.5741142 82.2274344,32.7325289 84.0583384,31.0846566 L87.2720584,35.6616669 C84.5816344,37.821674 81.8160024,39.2497062 77.6315304,39.2497062 C68.7753144,39.2497062 63.2080264,33.17159 63.2080264,26.0320483 C63.2080264,18.8918874 68.7753144,12.8143905 77.6315304,12.8143905" id="Fill-33" fill="#161569"></path>
                        <path d="M99.6762592,30.3522482 C100.311419,32.6590218 101.880675,33.9037506 104.384027,33.9037506 C106.326795,33.9037506 107.971259,33.2083126 107.971259,31.5969771 C107.971259,30.7547725 107.485251,29.8760311 105.280835,29.1440562 L102.366683,28.1191675 C98.4053072,26.8007458 95.2661632,24.017755 95.2295072,20.5399455 C95.2295072,15.8167879 99.2275392,12.8145763 104.608387,12.8145763 C108.980563,12.8145763 112.118443,14.9008904 113.651043,18.8555364 L108.345403,20.9424698 C107.448595,18.7824627 106.065779,18.1600983 104.645675,18.1600983 C103.076419,18.1600983 101.768811,18.7824627 101.768811,20.2470317 C101.768811,20.9424698 102.067115,21.9308216 104.309451,22.6634158 L107.112371,23.6152308 C112.978595,25.4829433 114.398699,28.5582286 114.473275,31.414293 C114.473275,36.8328886 109.540515,39.2492727 104.496523,39.2492727 C99.0783872,39.2492727 94.7062112,36.4297451 94.0710512,31.5239034 L99.6762592,30.3522482 Z" id="Fill-35" fill="#161569"></path>
                        <mask id="mask-14" fill="white">
                            <use xlink:href="#path-13"></use>
                        </mask>
                        <g id="Clip-38"></g>
                        <polygon id="Fill-37" fill="#161569" mask="url(#mask-14)" points="122.80076 38.8466865 129.41464 38.8466865 129.41464 13.2170386 122.80076 13.2170386"></polygon>
                        <path d="M143.202794,30.3522482 C143.837954,32.6590218 145.40721,33.9037506 147.911194,33.9037506 C149.853962,33.9037506 151.498426,33.2083126 151.498426,31.5969771 C151.498426,30.7547725 151.012418,29.8760311 148.808002,29.1440562 L145.893218,28.1191675 C141.931842,26.8007458 138.79333,24.017755 138.756674,20.5399455 C138.756674,15.8167879 142.754706,12.8145763 148.135554,12.8145763 C152.507098,12.8145763 155.64561,14.9008904 157.177578,18.8555364 L151.871938,20.9424698 C150.97513,18.7824627 149.592314,18.1600983 148.17221,18.1600983 C146.602954,18.1600983 145.295346,18.7824627 145.295346,20.2470317 C145.295346,20.9424698 145.594282,21.9308216 147.835986,22.6634158 L150.638906,23.6152308 C156.50513,25.4829433 157.925234,28.5582286 157.99981,31.414293 C157.99981,36.8328886 153.06705,39.2492727 148.023058,39.2492727 C142.604922,39.2492727 138.233378,36.4297451 137.598218,31.5239034 L143.202794,30.3522482 Z" id="Fill-39" fill="#161569" mask="url(#mask-14)"></path>
                    </g>
                </g>
                <path d="M187.432,22.168 C184.772,22.168 182.644,20.208 182.644,17.338 C182.644,14.468 184.772,12.508 187.432,12.508 C189.266,12.508 190.414,13.39 191.142,14.482 L189.952,15.112 C189.462,14.328 188.538,13.754 187.432,13.754 C185.542,13.754 184.086,15.238 184.086,17.338 C184.086,19.424 185.542,20.922 187.432,20.922 C188.538,20.922 189.462,20.348 189.952,19.564 L191.142,20.194 C190.4,21.286 189.266,22.168 187.432,22.168 Z M200.9,22 L200.144,20.068 L195.566,20.068 L194.81,22 L193.27,22 L196.98,12.662 L198.73,12.662 L202.44,22 L200.9,22 Z M197.848,13.88 L195.972,18.822 L199.738,18.822 L197.848,13.88 Z M205.31,22 L205.31,12.662 L206.71,12.662 L206.71,20.768 L210.952,20.768 L210.952,22 L205.31,22 Z M214.242,22 L214.242,12.662 L215.642,12.662 L215.642,22 L214.242,22 Z M219.478,22 L219.478,12.662 L225.75,12.662 L225.75,13.894 L220.878,13.894 L220.878,16.624 L225.652,16.624 L225.652,17.856 L220.878,17.856 L220.878,22 L219.478,22 Z M228.62,17.338 C228.62,14.566 230.538,12.508 233.324,12.508 C236.11,12.508 238.028,14.566 238.028,17.338 C238.028,20.11 236.11,22.168 233.324,22.168 C230.538,22.168 228.62,20.11 228.62,17.338 Z M236.586,17.338 C236.586,15.28 235.298,13.754 233.324,13.754 C231.322,13.754 230.062,15.28 230.062,17.338 C230.062,19.382 231.322,20.922 233.324,20.922 C235.298,20.922 236.586,19.382 236.586,17.338 Z M246.848,22 L244.622,18.402 L242.872,18.402 L242.872,22 L241.472,22 L241.472,12.662 L245.406,12.662 C247.184,12.662 248.402,13.81 248.402,15.532 C248.402,17.212 247.268,18.108 246.078,18.262 L248.472,22 L246.848,22 Z M246.96,15.532 C246.96,14.552 246.232,13.894 245.224,13.894 L242.872,13.894 L242.872,17.17 L245.224,17.17 C246.232,17.17 246.96,16.512 246.96,15.532 Z M258.44,22 L253.274,14.832 L253.274,22 L251.874,22 L251.874,12.662 L253.316,12.662 L258.398,19.662 L258.398,12.662 L259.798,12.662 L259.798,22 L258.44,22 Z M263.62,22 L263.62,12.662 L265.02,12.662 L265.02,22 L263.62,22 Z M275.52,22 L274.764,20.068 L270.186,20.068 L269.43,22 L267.89,22 L271.6,12.662 L273.35,12.662 L277.06,22 L275.52,22 Z M272.468,13.88 L270.592,18.822 L274.358,18.822 L272.468,13.88 Z M284.718,20.684 L285.516,19.606 C286.146,20.306 287.154,20.922 288.456,20.922 C289.968,20.922 290.5,20.152 290.5,19.48 C290.5,18.5 289.436,18.22 288.246,17.912 C286.748,17.52 285.012,17.086 285.012,15.182 C285.012,13.642 286.37,12.522 288.316,12.522 C289.758,12.522 290.892,12.984 291.718,13.824 L290.906,14.86 C290.192,14.104 289.212,13.768 288.204,13.768 C287.168,13.768 286.454,14.3 286.454,15.084 C286.454,15.924 287.462,16.19 288.624,16.484 C290.15,16.89 291.928,17.366 291.928,19.354 C291.928,20.81 290.92,22.168 288.4,22.168 C286.734,22.168 285.516,21.566 284.718,20.684 Z M299.698,22.168 C297.038,22.168 294.91,20.208 294.91,17.338 C294.91,14.468 297.038,12.508 299.698,12.508 C301.532,12.508 302.68,13.39 303.408,14.482 L302.218,15.112 C301.728,14.328 300.804,13.754 299.698,13.754 C297.808,13.754 296.352,15.238 296.352,17.338 C296.352,19.424 297.808,20.922 299.698,20.922 C300.804,20.922 301.728,20.348 302.218,19.564 L303.408,20.194 C302.666,21.286 301.532,22.168 299.698,22.168 Z M313.124,22 L313.124,17.828 L307.958,17.828 L307.958,22 L306.558,22 L306.558,12.662 L307.958,12.662 L307.958,16.582 L313.124,16.582 L313.124,12.662 L314.524,12.662 L314.524,22 L313.124,22 Z M317.954,17.338 C317.954,14.566 319.872,12.508 322.658,12.508 C325.444,12.508 327.362,14.566 327.362,17.338 C327.362,20.11 325.444,22.168 322.658,22.168 C319.872,22.168 317.954,20.11 317.954,17.338 Z M325.92,17.338 C325.92,15.28 324.632,13.754 322.658,13.754 C320.656,13.754 319.396,15.28 319.396,17.338 C319.396,19.382 320.656,20.922 322.658,20.922 C324.632,20.922 325.92,19.382 325.92,17.338 Z M330.414,17.338 C330.414,14.566 332.332,12.508 335.118,12.508 C337.904,12.508 339.822,14.566 339.822,17.338 C339.822,20.11 337.904,22.168 335.118,22.168 C332.332,22.168 330.414,20.11 330.414,17.338 Z M338.38,17.338 C338.38,15.28 337.092,13.754 335.118,13.754 C333.116,13.754 331.856,15.28 331.856,17.338 C331.856,19.382 333.116,20.922 335.118,20.922 C337.092,20.922 338.38,19.382 338.38,17.338 Z M343.266,22 L343.266,12.662 L344.666,12.662 L344.666,20.768 L348.908,20.768 L348.908,22 L343.266,22 Z M183.036,38 L183.036,28.662 L184.436,28.662 L184.436,38 L183.036,38 Z M194.838,38 L189.672,30.832 L189.672,38 L188.272,38 L188.272,28.662 L189.714,28.662 L194.796,35.662 L194.796,28.662 L196.196,28.662 L196.196,38 L194.838,38 Z M200.018,38 L200.018,28.662 L206.29,28.662 L206.29,29.894 L201.418,29.894 L201.418,32.624 L206.192,32.624 L206.192,33.856 L201.418,33.856 L201.418,38 L200.018,38 Z M209.16,33.338 C209.16,30.566 211.078,28.508 213.864,28.508 C216.65,28.508 218.568,30.566 218.568,33.338 C218.568,36.11 216.65,38.168 213.864,38.168 C211.078,38.168 209.16,36.11 209.16,33.338 Z M217.126,33.338 C217.126,31.28 215.838,29.754 213.864,29.754 C211.862,29.754 210.602,31.28 210.602,33.338 C210.602,35.382 211.862,36.922 213.864,36.922 C215.838,36.922 217.126,35.382 217.126,33.338 Z M227.388,38 L225.162,34.402 L223.412,34.402 L223.412,38 L222.012,38 L222.012,28.662 L225.946,28.662 C227.724,28.662 228.942,29.81 228.942,31.532 C228.942,33.212 227.808,34.108 226.618,34.262 L229.012,38 L227.388,38 Z M227.5,31.532 C227.5,30.552 226.772,29.894 225.764,29.894 L223.412,29.894 L223.412,33.17 L225.764,33.17 C226.772,33.17 227.5,32.512 227.5,31.532 Z M240.45,38 L240.45,30.58 L237.426,38 L236.838,38 L233.814,30.58 L233.814,38 L232.414,38 L232.414,28.662 L234.416,28.662 L237.132,35.368 L239.848,28.662 L241.85,28.662 L241.85,38 L240.45,38 Z M252.336,38 L251.58,36.068 L247.002,36.068 L246.246,38 L244.706,38 L248.416,28.662 L250.166,28.662 L253.876,38 L252.336,38 Z M249.284,29.88 L247.408,34.822 L251.174,34.822 L249.284,29.88 Z M258.104,38 L258.104,29.894 L255.206,29.894 L255.206,28.662 L262.388,28.662 L262.388,29.894 L259.504,29.894 L259.504,38 L258.104,38 Z M265.594,38 L265.594,28.662 L266.994,28.662 L266.994,38 L265.594,38 Z M270.438,33.338 C270.438,30.566 272.356,28.508 275.142,28.508 C277.928,28.508 279.846,30.566 279.846,33.338 C279.846,36.11 277.928,38.168 275.142,38.168 C272.356,38.168 270.438,36.11 270.438,33.338 Z M278.404,33.338 C278.404,31.28 277.116,29.754 275.142,29.754 C273.14,29.754 271.88,31.28 271.88,33.338 C271.88,35.382 273.14,36.922 275.142,36.922 C277.116,36.922 278.404,35.382 278.404,33.338 Z M289.856,38 L284.69,30.832 L284.69,38 L283.29,38 L283.29,28.662 L284.732,28.662 L289.814,35.662 L289.814,28.662 L291.214,28.662 L291.214,38 L289.856,38 Z M299.824,36.684 L300.622,35.606 C301.252,36.306 302.26,36.922 303.562,36.922 C305.074,36.922 305.606,36.152 305.606,35.48 C305.606,34.5 304.542,34.22 303.352,33.912 C301.854,33.52 300.118,33.086 300.118,31.182 C300.118,29.642 301.476,28.522 303.422,28.522 C304.864,28.522 305.998,28.984 306.824,29.824 L306.012,30.86 C305.298,30.104 304.318,29.768 303.31,29.768 C302.274,29.768 301.56,30.3 301.56,31.084 C301.56,31.924 302.568,32.19 303.73,32.484 C305.256,32.89 307.034,33.366 307.034,35.354 C307.034,36.81 306.026,38.168 303.506,38.168 C301.84,38.168 300.622,37.566 299.824,36.684 Z M310.408,38 L310.408,28.662 L316.68,28.662 L316.68,29.894 L311.808,29.894 L311.808,32.624 L316.582,32.624 L316.582,33.856 L311.808,33.856 L311.808,36.768 L316.68,36.768 L316.68,38 L310.408,38 Z M325.556,38 L323.33,34.402 L321.58,34.402 L321.58,38 L320.18,38 L320.18,28.662 L324.114,28.662 C325.892,28.662 327.11,29.81 327.11,31.532 C327.11,33.212 325.976,34.108 324.786,34.262 L327.18,38 L325.556,38 Z M325.668,31.532 C325.668,30.552 324.94,29.894 323.932,29.894 L321.58,29.894 L321.58,33.17 L323.932,33.17 C324.94,33.17 325.668,32.512 325.668,31.532 Z M333.186,38 L329.476,28.662 L331.072,28.662 L334.054,36.474 L337.05,28.662 L338.646,28.662 L334.936,38 L333.186,38 Z M341.516,38 L341.516,28.662 L342.916,28.662 L342.916,38 L341.516,38 Z M351.148,38.168 C348.488,38.168 346.36,36.208 346.36,33.338 C346.36,30.468 348.488,28.508 351.148,28.508 C352.982,28.508 354.13,29.39 354.858,30.482 L353.668,31.112 C353.178,30.328 352.254,29.754 351.148,29.754 C349.258,29.754 347.802,31.238 347.802,33.338 C347.802,35.424 349.258,36.922 351.148,36.922 C352.254,36.922 353.178,36.348 353.668,35.564 L354.858,36.194 C354.116,37.286 352.982,38.168 351.148,38.168 Z M358.008,38 L358.008,28.662 L364.28,28.662 L364.28,29.894 L359.408,29.894 L359.408,32.624 L364.182,32.624 L364.182,33.856 L359.408,33.856 L359.408,36.768 L364.28,36.768 L364.28,38 L358.008,38 Z M367.206,36.684 L368.004,35.606 C368.634,36.306 369.642,36.922 370.944,36.922 C372.456,36.922 372.988,36.152 372.988,35.48 C372.988,34.5 371.924,34.22 370.734,33.912 C369.236,33.52 367.5,33.086 367.5,31.182 C367.5,29.642 368.858,28.522 370.804,28.522 C372.246,28.522 373.38,28.984 374.206,29.824 L373.394,30.86 C372.68,30.104 371.7,29.768 370.692,29.768 C369.656,29.768 368.942,30.3 368.942,31.084 C368.942,31.924 369.95,32.19 371.112,32.484 C372.638,32.89 374.416,33.366 374.416,35.354 C374.416,36.81 373.408,38.168 370.888,38.168 C369.222,38.168 368.004,37.566 367.206,36.684 Z" id="California-School-In" fill="#161569" opacity="0.699999988"></path>
            </g>
        </g>
    </g>
</svg>